# WaveFront *.obj file (generated by Autodesk ATF)

mtllib 9321b33b-3d54-424d-9e01-078102532b97.mtl

g Body1

v -7.500000 -15.000000 0.233226
v -7.355890 -15.000000 1.696404
v -6.929096 -15.000000 3.103352
v -6.236022 -15.000000 4.400003
v -5.303301 -15.000000 5.536527
v -4.166777 -15.000000 6.469248
v -2.870126 -15.000000 7.162323
v -1.463177 -15.000000 7.589116
v -0.000000 -15.000000 7.733226
v 1.463177 -15.000000 7.589116
v 2.870126 -15.000000 7.162323
v 4.166777 -15.000000 6.469248
v 5.303301 -15.000000 5.536527
v 6.236022 -15.000000 4.400003
v 6.929096 -15.000000 3.103352
v 7.355890 -15.000000 1.696404
v 7.500000 -15.000000 0.233226
v 7.355890 -15.000000 -1.229951
v 6.929096 -15.000000 -2.636900
v 6.236022 -15.000000 -3.933551
v 5.303301 -15.000000 -5.070075
v 4.166777 -15.000000 -6.002796
v 2.870126 -15.000000 -6.695870
v 1.463177 -15.000000 -7.122663
v -0.000000 -15.000000 -7.266774
v -1.463177 -15.000000 -7.122663
v -2.870126 -15.000000 -6.695870
v -4.166777 -15.000000 -6.002796
v -5.303301 -15.000000 -5.070075
v -6.236022 -15.000000 -3.933551
v -6.929096 -15.000000 -2.636900
v -7.355890 -15.000000 -1.229951
v -7.500000 15.000000 0.233226
v -7.355890 15.000000 -1.229951
v -6.929096 15.000000 -2.636900
v -6.236022 15.000000 -3.933551
v -5.303301 15.000000 -5.070075
v -4.166777 15.000000 -6.002796
v -2.870126 15.000000 -6.695870
v -1.463177 15.000000 -7.122663
v -0.000000 15.000000 -7.266774
v 1.463177 15.000000 -7.122663
v 2.870126 15.000000 -6.695870
v 4.166777 15.000000 -6.002796
v 5.303301 15.000000 -5.070075
v 6.236022 15.000000 -3.933551
v 6.929096 15.000000 -2.636900
v 7.355890 15.000000 -1.229951
v 7.500000 15.000000 0.233226
v 7.355890 15.000000 1.696404
v 6.929096 15.000000 3.103352
v 6.236022 15.000000 4.400003
v 5.303301 15.000000 5.536527
v 4.166777 15.000000 6.469248
v 2.870126 15.000000 7.162323
v 1.463177 15.000000 7.589116
v -0.000000 15.000000 7.733226
v -1.463177 15.000000 7.589116
v -2.870126 15.000000 7.162323
v -4.166777 15.000000 6.469248
v -5.303301 15.000000 5.536527
v -6.236022 15.000000 4.400003
v -6.929096 15.000000 3.103352
v -7.355890 15.000000 1.696404
vt 3.000000 -2.208932 0.000000
vt -0.000000 -2.208932 0.000000
vt 3.000000 -2.356194 0.000000
vt -0.000000 -2.356194 0.000000
vt 3.000000 2.356194 0.000000
vt -0.000000 2.356194 0.000000
vt 3.000000 2.208932 0.000000
vt -0.000000 2.208932 0.000000
vt 3.000000 2.061670 0.000000
vt -0.000000 2.061670 0.000000
vt 3.000000 1.914408 0.000000
vt -0.000000 1.914408 0.000000
vt 3.000000 1.767146 0.000000
vt -0.000000 1.767146 0.000000
vt 3.000000 1.619884 0.000000
vt -0.000000 1.619884 0.000000
vt 3.000000 1.472622 0.000000
vt -0.000000 1.472622 0.000000
vt 3.000000 1.325359 0.000000
vt -0.000000 1.325359 0.000000
vt 3.000000 1.178097 0.000000
vt -0.000000 1.178097 0.000000
vt 3.000000 1.030835 0.000000
vt -0.000000 1.030835 0.000000
vt 3.000000 0.883573 0.000000
vt -0.000000 0.883573 0.000000
vt 3.000000 0.736311 0.000000
vt -0.000000 0.736311 0.000000
vt 3.000000 0.589049 0.000000
vt -0.000000 0.589049 0.000000
vt 3.000000 0.441786 0.000000
vt -0.000000 0.441786 0.000000
vt 3.000000 0.294524 0.000000
vt -0.000000 0.294524 0.000000
vt 3.000000 0.147262 0.000000
vt -0.000000 0.147262 0.000000
vt 3.000000 0.000000 0.000000
vt -0.000000 0.000000 0.000000
vt 3.000000 -0.147262 0.000000
vt -0.000000 -0.147262 0.000000
vt 3.000000 -0.294524 0.000000
vt -0.000000 -0.294524 0.000000
vt 3.000000 -0.441786 0.000000
vt -0.000000 -0.441786 0.000000
vt 3.000000 -0.589049 0.000000
vt -0.000000 -0.589049 0.000000
vt 3.000000 -0.736311 0.000000
vt -0.000000 -0.736311 0.000000
vt 3.000000 -0.883573 0.000000
vt -0.000000 -0.883573 0.000000
vt 3.000000 -1.030835 0.000000
vt -0.000000 -1.030835 0.000000
vt 3.000000 -1.178097 0.000000
vt -0.000000 -1.178097 0.000000
vt 3.000000 -1.325359 0.000000
vt -0.000000 -1.325359 0.000000
vt 3.000000 -1.472622 0.000000
vt -0.000000 -1.472622 0.000000
vt 3.000000 -1.619884 0.000000
vt -0.000000 -1.619884 0.000000
vt 3.000000 -1.767146 0.000000
vt -0.000000 -1.767146 0.000000
vt 3.000000 -1.914408 0.000000
vt -0.000000 -1.914408 0.000000
vt 3.000000 -2.061670 0.000000
vt -0.000000 -2.061670 0.000000
vt 0.735589 0.146318 0.000000
vt -0.735589 0.146318 0.000000
vt 0.750000 -0.000000 0.000000
vt -0.750000 0.000000 0.000000
vt 0.735589 -0.146318 0.000000
vt -0.735589 -0.146318 0.000000
vt 0.692910 -0.287013 0.000000
vt -0.692910 -0.287013 0.000000
vt 0.623602 -0.416678 0.000000
vt -0.623602 -0.416678 0.000000
vt 0.530330 -0.530330 0.000000
vt -0.530330 -0.530330 0.000000
vt 0.416678 -0.623602 0.000000
vt -0.416678 -0.623602 0.000000
vt 0.287013 -0.692910 0.000000
vt -0.287013 -0.692910 0.000000
vt 0.146318 -0.735589 0.000000
vt -0.146318 -0.735589 0.000000
vt -0.000000 -0.750000 0.000000
vt -0.692910 0.287013 0.000000
vt 0.692910 0.287013 0.000000
vt -0.623602 0.416678 0.000000
vt 0.623602 0.416678 0.000000
vt -0.530330 0.530330 0.000000
vt 0.530330 0.530330 0.000000
vt -0.416678 0.623602 0.000000
vt 0.416678 0.623602 0.000000
vt -0.287013 0.692910 0.000000
vt 0.287013 0.692910 0.000000
vt -0.146318 0.735589 0.000000
vt 0.146318 0.735589 0.000000
vt -0.000000 0.750000 0.000000
vt -0.735589 -0.146318 0.000000
vt 0.735589 -0.146318 0.000000
vt -0.750000 -0.000000 0.000000
vt 0.750000 0.000000 0.000000
vt -0.735589 0.146318 0.000000
vt 0.735589 0.146318 0.000000
vt -0.692910 0.287013 0.000000
vt 0.692910 0.287013 0.000000
vt -0.623602 0.416678 0.000000
vt 0.623602 0.416678 0.000000
vt -0.530330 0.530330 0.000000
vt 0.530330 0.530330 0.000000
vt -0.416678 0.623602 0.000000
vt 0.416678 0.623602 0.000000
vt -0.287013 0.692910 0.000000
vt 0.287013 0.692910 0.000000
vt -0.146318 0.735589 0.000000
vt 0.146318 0.735589 0.000000
vt 0.000000 0.750000 0.000000
vt 0.692910 -0.287013 0.000000
vt -0.692910 -0.287013 0.000000
vt 0.623602 -0.416678 0.000000
vt -0.623602 -0.416678 0.000000
vt 0.530330 -0.530330 0.000000
vt -0.530330 -0.530330 0.000000
vt 0.416678 -0.623602 0.000000
vt -0.416678 -0.623602 0.000000
vt 0.287013 -0.692910 0.000000
vt -0.287013 -0.692910 0.000000
vt 0.146318 -0.735589 0.000000
vt -0.146318 -0.735589 0.000000
vt 0.000000 -0.750000 0.000000
vn -0.098079 0.000000 0.019509
vn -0.098079 0.000000 0.019509
vn -0.100000 0.000000 0.000000
vn -0.100000 0.000000 0.000000
vn -0.098079 0.000000 -0.019509
vn -0.098079 0.000000 -0.019509
vn -0.092388 0.000000 -0.038268
vn -0.092388 0.000000 -0.038268
vn -0.083147 0.000000 -0.055557
vn -0.083147 0.000000 -0.055557
vn -0.070711 0.000000 -0.070711
vn -0.070711 0.000000 -0.070711
vn -0.055557 0.000000 -0.083147
vn -0.055557 0.000000 -0.083147
vn -0.038268 0.000000 -0.092388
vn -0.038268 0.000000 -0.092388
vn -0.019509 0.000000 -0.098079
vn -0.019509 0.000000 -0.098079
vn 0.000000 0.000000 -0.100000
vn 0.000000 0.000000 -0.100000
vn 0.019509 0.000000 -0.098079
vn 0.019509 0.000000 -0.098079
vn 0.038268 0.000000 -0.092388
vn 0.038268 0.000000 -0.092388
vn 0.055557 0.000000 -0.083147
vn 0.055557 0.000000 -0.083147
vn 0.070711 0.000000 -0.070711
vn 0.070711 0.000000 -0.070711
vn 0.083147 0.000000 -0.055557
vn 0.083147 0.000000 -0.055557
vn 0.092388 0.000000 -0.038268
vn 0.092388 0.000000 -0.038268
vn 0.098079 0.000000 -0.019509
vn 0.098079 0.000000 -0.019509
vn 0.100000 0.000000 0.000000
vn 0.100000 0.000000 0.000000
vn 0.098079 0.000000 0.019509
vn 0.098079 0.000000 0.019509
vn 0.092388 0.000000 0.038268
vn 0.092388 0.000000 0.038268
vn 0.083147 0.000000 0.055557
vn 0.083147 0.000000 0.055557
vn 0.070711 0.000000 0.070711
vn 0.070711 0.000000 0.070711
vn 0.055557 0.000000 0.083147
vn 0.055557 0.000000 0.083147
vn 0.038268 0.000000 0.092388
vn 0.038268 0.000000 0.092388
vn 0.019509 0.000000 0.098079
vn 0.019509 0.000000 0.098079
vn 0.000000 0.000000 0.100000
vn 0.000000 0.000000 0.100000
vn -0.019509 0.000000 0.098079
vn -0.019509 0.000000 0.098079
vn -0.038268 0.000000 0.092388
vn -0.038268 0.000000 0.092388
vn -0.055557 0.000000 0.083147
vn -0.055557 0.000000 0.083147
vn -0.070711 0.000000 0.070711
vn -0.070711 0.000000 0.070711
vn -0.083147 0.000000 0.055557
vn -0.083147 0.000000 0.055557
vn -0.092388 0.000000 0.038268
vn -0.092388 0.000000 0.038268
vn 0.000000 -0.100000 0.000000
vn 0.000000 -0.100000 0.000000
vn 0.000000 -0.100000 0.000000
vn 0.000000 -0.100000 0.000000
vn 0.000000 -0.100000 0.000000
vn 0.000000 -0.100000 0.000000
vn 0.000000 -0.100000 0.000000
vn 0.000000 -0.100000 0.000000
vn 0.000000 -0.100000 0.000000
vn 0.000000 -0.100000 0.000000
vn 0.000000 -0.100000 0.000000
vn 0.000000 -0.100000 0.000000
vn 0.000000 -0.100000 0.000000
vn 0.000000 -0.100000 0.000000
vn 0.000000 -0.100000 0.000000
vn 0.000000 -0.100000 0.000000
vn 0.000000 -0.100000 0.000000
vn 0.000000 -0.100000 0.000000
vn 0.000000 -0.100000 0.000000
vn 0.000000 -0.100000 0.000000
vn 0.000000 -0.100000 0.000000
vn 0.000000 -0.100000 0.000000
vn 0.000000 -0.100000 0.000000
vn 0.000000 -0.100000 0.000000
vn 0.000000 -0.100000 0.000000
vn 0.000000 -0.100000 0.000000
vn 0.000000 -0.100000 0.000000
vn 0.000000 -0.100000 0.000000
vn 0.000000 -0.100000 0.000000
vn 0.000000 -0.100000 0.000000
vn 0.000000 -0.100000 0.000000
vn 0.000000 -0.100000 0.000000
vn -0.000000 0.100000 -0.000000
vn -0.000000 0.100000 -0.000000
vn -0.000000 0.100000 -0.000000
vn -0.000000 0.100000 -0.000000
vn -0.000000 0.100000 -0.000000
vn -0.000000 0.100000 -0.000000
vn -0.000000 0.100000 -0.000000
vn -0.000000 0.100000 -0.000000
vn -0.000000 0.100000 -0.000000
vn -0.000000 0.100000 -0.000000
vn -0.000000 0.100000 -0.000000
vn -0.000000 0.100000 -0.000000
vn -0.000000 0.100000 -0.000000
vn -0.000000 0.100000 -0.000000
vn -0.000000 0.100000 -0.000000
vn -0.000000 0.100000 -0.000000
vn -0.000000 0.100000 -0.000000
vn -0.000000 0.100000 -0.000000
vn -0.000000 0.100000 -0.000000
vn -0.000000 0.100000 -0.000000
vn -0.000000 0.100000 -0.000000
vn -0.000000 0.100000 -0.000000
vn -0.000000 0.100000 -0.000000
vn -0.000000 0.100000 -0.000000
vn -0.000000 0.100000 -0.000000
vn -0.000000 0.100000 -0.000000
vn -0.000000 0.100000 -0.000000
vn -0.000000 0.100000 -0.000000
vn -0.000000 0.100000 -0.000000
vn -0.000000 0.100000 -0.000000
vn -0.000000 0.100000 -0.000000
vn -0.000000 0.100000 -0.000000
usemtl Steel_-_Satin
f 2/1/1 64/2/2 1/3/3
f 1/3/3 64/2/2 33/4/4
f 1/5/3 33/6/4 32/7/5
f 32/7/5 33/6/4 34/8/6
f 32/7/5 34/8/6 31/9/7
f 31/9/7 34/8/6 35/10/8
f 31/9/7 35/10/8 30/11/9
f 30/11/9 35/10/8 36/12/10
f 30/11/9 36/12/10 29/13/11
f 29/13/11 36/12/10 37/14/12
f 29/13/11 37/14/12 28/15/13
f 28/15/13 37/14/12 38/16/14
f 28/15/13 38/16/14 27/17/15
f 27/17/15 38/16/14 39/18/16
f 27/17/15 39/18/16 26/19/17
f 26/19/17 39/18/16 40/20/18
f 26/19/17 40/20/18 25/21/19
f 25/21/19 40/20/18 41/22/20
f 25/21/19 41/22/20 24/23/21
f 24/23/21 41/22/20 42/24/22
f 24/23/21 42/24/22 23/25/23
f 23/25/23 42/24/22 43/26/24
f 23/25/23 43/26/24 22/27/25
f 22/27/25 43/26/24 44/28/26
f 22/27/25 44/28/26 21/29/27
f 21/29/27 44/28/26 45/30/28
f 21/29/27 45/30/28 20/31/29
f 20/31/29 45/30/28 46/32/30
f 20/31/29 46/32/30 19/33/31
f 19/33/31 46/32/30 47/34/32
f 19/33/31 47/34/32 18/35/33
f 18/35/33 47/34/32 48/36/34
f 18/35/33 48/36/34 17/37/35
f 17/37/35 48/36/34 49/38/36
f 17/37/35 49/38/36 16/39/37
f 16/39/37 49/38/36 50/40/38
f 16/39/37 50/40/38 15/41/39
f 15/41/39 50/40/38 51/42/40
f 15/41/39 51/42/40 14/43/41
f 14/43/41 51/42/40 52/44/42
f 14/43/41 52/44/42 13/45/43
f 13/45/43 52/44/42 53/46/44
f 13/45/43 53/46/44 12/47/45
f 12/47/45 53/46/44 54/48/46
f 12/47/45 54/48/46 11/49/47
f 11/49/47 54/48/46 55/50/48
f 11/49/47 55/50/48 10/51/49
f 10/51/49 55/50/48 56/52/50
f 10/51/49 56/52/50 9/53/51
f 9/53/51 56/52/50 57/54/52
f 9/53/51 57/54/52 8/55/53
f 8/55/53 57/54/52 58/56/54
f 8/55/53 58/56/54 7/57/55
f 7/57/55 58/56/54 59/58/56
f 7/57/55 59/58/56 6/59/57
f 6/59/57 59/58/56 60/60/58
f 6/59/57 60/60/58 5/61/59
f 5/61/59 60/60/58 61/62/60
f 5/61/59 61/62/60 4/63/61
f 4/63/61 61/62/60 62/64/62
f 4/63/61 62/64/62 3/65/63
f 3/65/63 62/64/62 63/66/64
f 3/65/63 63/66/64 2/1/1
f 2/1/1 63/66/64 64/2/2
f 32/67/65 18/68/66 1/69/67
f 1/69/67 18/68/66 17/70/68
f 1/69/67 17/70/68 2/71/69
f 2/71/69 17/70/68 16/72/70
f 2/71/69 16/72/70 3/73/71
f 3/73/71 16/72/70 15/74/72
f 3/73/71 15/74/72 4/75/73
f 4/75/73 15/74/72 14/76/74
f 4/75/73 14/76/74 5/77/75
f 5/77/75 14/76/74 13/78/76
f 5/77/75 13/78/76 6/79/77
f 6/79/77 13/78/76 12/80/78
f 6/79/77 12/80/78 7/81/79
f 7/81/79 12/80/78 11/82/80
f 7/81/79 11/82/80 8/83/81
f 8/83/81 11/82/80 10/84/82
f 8/83/81 10/84/82 9/85/83
f 18/68/66 32/67/65 19/86/84
f 19/86/84 32/67/65 31/87/85
f 19/86/84 31/87/85 20/88/86
f 20/88/86 31/87/85 30/89/87
f 20/88/86 30/89/87 21/90/88
f 21/90/88 30/89/87 29/91/89
f 21/90/88 29/91/89 22/92/90
f 22/92/90 29/91/89 28/93/91
f 22/92/90 28/93/91 23/94/92
f 23/94/92 28/93/91 27/95/93
f 23/94/92 27/95/93 24/96/94
f 24/96/94 27/95/93 26/97/95
f 24/96/94 26/97/95 25/98/96
f 64/99/97 50/100/98 33/101/99
f 33/101/99 50/100/98 49/102/100
f 33/101/99 49/102/100 34/103/101
f 34/103/101 49/102/100 48/104/102
f 34/103/101 48/104/102 35/105/103
f 35/105/103 48/104/102 47/106/104
f 35/105/103 47/106/104 36/107/105
f 36/107/105 47/106/104 46/108/106
f 36/107/105 46/108/106 37/109/107
f 37/109/107 46/108/106 45/110/108
f 37/109/107 45/110/108 38/111/109
f 38/111/109 45/110/108 44/112/110
f 38/111/109 44/112/110 39/113/111
f 39/113/111 44/112/110 43/114/112
f 39/113/111 43/114/112 40/115/113
f 40/115/113 43/114/112 42/116/114
f 40/115/113 42/116/114 41/117/115
f 50/100/98 64/99/97 51/118/116
f 51/118/116 64/99/97 63/119/117
f 51/118/116 63/119/117 52/120/118
f 52/120/118 63/119/117 62/121/119
f 52/120/118 62/121/119 53/122/120
f 53/122/120 62/121/119 61/123/121
f 53/122/120 61/123/121 54/124/122
f 54/124/122 61/123/121 60/125/123
f 54/124/122 60/125/123 55/126/124
f 55/126/124 60/125/123 59/127/125
f 55/126/124 59/127/125 56/128/126
f 56/128/126 59/127/125 58/129/127
f 56/128/126 58/129/127 57/130/128
# 64 vertices
# 130 texture params
# 128 normals
# 124 facets

# 1 groups
