                                                                        S      1
,,13Hrovor_link v2,13Hrovor_link v2,7Hunknown,7Hunknown,32,38,7,99,15,, G      1
1.,2,2HMM,1,0.08,15H20210723.192642,0.01,10000.,7Hunknown,7Hunknown,11, G      2
0,15H20210723.092926;                                                   G      3
     408       1                                       3        00000001D      1
     408       0               1       0                               0D      2
     124       2                                                00000000D      3
     124                       3       0                               0D      4
     308       5                                                00010200D      5
     308       0               1       0                               0D      6
     186       6                                                00010000D      7
     186            -175       1       0                               0D      8
     514       7                                                00010000D      9
     514                       2       1                               0D     10
     510       9                                                00010000D     11
     510            -175       1       1                               0D     12
     510      10                                                00010000D     13
     510            -175       1       1                               0D     14
     510      11                                                00010000D     15
     510            -175       1       1                               0D     16
     510      12                                                00010000D     17
     510            -175       1       1                               0D     18
     510      13                                                00010000D     19
     510            -175       1       1                               0D     20
     510      14                                                00010000D     21
     510            -175       1       1                               0D     22
     510      15                                                00010000D     23
     510            -175       1       1                               0D     24
     510      16                                                00010000D     25
     510            -175       1       1                               0D     26
     510      17                                                00010000D     27
     510            -175       1       1                               0D     28
     510      18                                                00010000D     29
     510            -175       1       1                               0D     30
     510      19                                                00010000D     31
     510            -175       1       1                               0D     32
     510      20                                                00010000D     33
     510            -175       1       1                               0D     34
     510      21                                                00010000D     35
     510            -175       1       1                               0D     36
     510      22                                                00010000D     37
     510            -175       1       1                               0D     38
     508      23                                                00010000D     39
     508                       1       1                               0D     40
     508      24                                                00010000D     41
     508                       1       1                               0D     42
     508      25                                                00010000D     43
     508                       1       1                               0D     44
     508      26                                                00010000D     45
     508                       1       1                               0D     46
     508      27                                                00010000D     47
     508                       3       1                               0D     48
     508      30                                                00010000D     49
     508                       1       1                               0D     50
     508      31                                                00010000D     51
     508                       1       1                               0D     52
     508      32                                                00010000D     53
     508                       3       1                               0D     54
     508      35                                                00010000D     55
     508                       1       1                               0D     56
     508      36                                                00010000D     57
     508                       1       1                               0D     58
     508      37                                                00010000D     59
     508                       1       1                               0D     60
     508      38                                                00010000D     61
     508                       1       1                               0D     62
     508      39                                                00010000D     63
     508                       1       1                               0D     64
     508      40                                                00010000D     65
     508                       1       1                               0D     66
     126      41                                                00010000D     67
     126       0               6       0                               0D     68
     126      47                                                00010000D     69
     126       0               2       0                               0D     70
     126      49                                                00010000D     71
     126       0               6       0                               0D     72
     126      55                                                00010000D     73
     126       0               2       0                               0D     74
     126      57                                                00010000D     75
     126       0               4       0                               0D     76
     126      61                                                00010000D     77
     126       0               2       0                               0D     78
     126      63                                                00010000D     79
     126       0               4       0                               0D     80
     126      67                                                00010000D     81
     126       0               6       0                               0D     82
     126      73                                                00010000D     83
     126       0               2       0                               0D     84
     126      75                                                00010000D     85
     126       0               6       0                               0D     86
     126      81                                                00010000D     87
     126       0               3       0                               0D     88
     126      84                                                00010000D     89
     126       0               3       0                               0D     90
     126      87                                                00010000D     91
     126       0               3       0                               0D     92
     126      90                                                00010000D     93
     126       0               8       0                               0D     94
     126      98                                                00010000D     95
     126       0               3       0                               0D     96
     126     101                                                00010000D     97
     126       0               8       0                               0D     98
     126     109                                                00010000D     99
     126       0               3       0                               0D    100
     126     112                                                00010000D    101
     126       0               5       0                               0D    102
     126     117                                                00010000D    103
     126       0               3       0                               0D    104
     126     120                                                00010000D    105
     126       0               5       0                               0D    106
     126     125                                                00010000D    107
     126       0               3       0                               0D    108
     126     128                                                00010000D    109
     126       0               3       0                               0D    110
     126     131                                                00010000D    111
     126       0               8       0                               0D    112
     126     139                                                00010000D    113
     126       0               3       0                               0D    114
     126     142                                                00010000D    115
     126       0               3       0                               0D    116
     126     145                                                00010000D    117
     126       0               3       0                               0D    118
     126     148                                                00010000D    119
     126       0               5       0                               0D    120
     126     153                                                00010000D    121
     126       0               3       0                               0D    122
     126     156                                                00010000D    123
     126       0               5       0                               0D    124
     126     161                                                00010000D    125
     126       0               3       0                               0D    126
     126     164                                                00010000D    127
     126       0               8       0                               0D    128
     126     172                                                00010000D    129
     126       0               3       0                               0D    130
     126     175                                                00010000D    131
     126       0               2       0                               0D    132
     126     177                                                00010000D    133
     126       0               2       0                               0D    134
     126     179                                                00010000D    135
     126       0               2       0                               0D    136
     126     181                                                00010000D    137
     126       0               2       0                               0D    138
     128     183                                                00010000D    139
     128       0    -175      10       0                               0D    140
     128     193                                                00010000D    141
     128       0    -175       6       0                               0D    142
     128     199                                                00010000D    143
     128       0    -175       9       0                               0D    144
     128     208                                                00010000D    145
     128       0    -175       5       0                               0D    146
     128     213                                                00010000D    147
     128       0    -175       7       0                               0D    148
     128     220                                                00010000D    149
     128       0    -175      13       0                               0D    150
     128     233                                                00010000D    151
     128       0    -175       5       0                               0D    152
     128     238                                                00010000D    153
     128       0    -175       7       0                               0D    154
     128     245                                                00010000D    155
     128       0    -175      13       0                               0D    156
     128     258                                                00010000D    157
     128       0    -175       5       0                               0D    158
     128     263                                                00010000D    159
     128       0    -175       7       0                               0D    160
     128     270                                                00010000D    161
     128       0    -175       5       0                               0D    162
     128     275                                                00010000D    163
     128       0    -175       8       0                               0D    164
     128     283                                                00010000D    165
     128       0    -175       5       0                               0D    166
     502     288                                                00010000D    167
     502                      14       1                               0D    168
     504     302                                                00010001D    169
     504                      10       1                               0D    170
     406     312                                                00000000D    171
     406                       1      15                               0D    172
     406     313                                                00000000D    173
     406                       1      15                               0D    174
     314     314                                                00000200D    175
     314                       2       0                               0D    176
408,5,0.,0.,0.,1.,0,1,173;                                             1P      1
124,1.,3.69778549322354D-32,-4.31408307542445D-32,-11.5,               3P      2
5.60382540176772D-46,1.,-1.94289029309403D-16,-42.2,                   3P      3
8.33731532607319D-46,1.94289029309403D-16,1.,-2.72400000000001;        3P      4
308,0,13H구성요소1,1,7;                                            5P      5
186,9,1,0,0,1,171;                                                     7P      6
514,14,11,1,13,1,15,1,17,1,19,1,21,1,23,1,25,1,27,1,29,1,31,1,         9P      7
33,1,35,1,37,1;                                                        9P      8
510,139,1,1,39;                                                       11P      9
510,141,1,1,41;                                                       13P     10
510,143,1,1,43;                                                       15P     11
510,145,1,1,45;                                                       17P     12
510,147,1,1,47;                                                       19P     13
510,149,1,1,49;                                                       21P     14
510,151,1,1,51;                                                       23P     15
510,153,1,1,53;                                                       25P     16
510,155,1,1,55;                                                       27P     17
510,157,1,1,57;                                                       29P     18
510,159,1,1,59;                                                       31P     19
510,161,1,1,61;                                                       33P     20
510,163,1,1,63;                                                       35P     21
510,165,1,1,65;                                                       37P     22
508,4,0,169,1,1,0,0,169,2,1,0,0,169,3,1,0,0,169,4,1,0;                39P     23
508,4,0,169,2,0,0,0,169,5,1,0,0,169,6,0,0,0,169,7,0,0;                41P     24
508,4,0,169,8,1,0,0,169,9,1,0,0,169,10,1,0,0,169,6,1,0;               43P     25
508,4,0,169,9,0,0,0,169,11,0,0,0,169,12,0,0,0,169,13,0,0;             45P     26
508,12,0,169,14,0,0,0,169,15,1,0,0,169,3,0,0,0,169,7,1,0,0,169,       47P     27
10,0,0,0,169,13,1,0,0,169,16,0,0,0,169,17,1,0,0,169,18,0,0,0,         47P     28
169,19,1,0,0,169,20,0,0,0,169,21,1,0;                                 47P     29
508,4,0,169,14,1,0,0,169,22,1,0,0,169,23,1,0,0,169,24,1,0;            49P     30
508,4,0,169,4,0,0,0,169,15,0,0,0,169,24,0,0,0,169,25,0,0;             51P     31
508,12,0,169,23,0,0,0,169,26,0,0,0,169,27,0,0,0,169,28,0,0,0,         53P     32
169,29,0,0,0,169,30,1,0,0,169,31,0,0,0,169,11,1,0,0,169,8,0,0,0,      53P     33
169,5,0,0,0,169,1,0,0,0,169,25,1,0;                                   53P     34
508,4,0,169,16,1,0,0,169,12,1,0,0,169,31,1,0,0,169,32,1,0;            55P     35
508,4,0,169,32,0,0,0,169,30,0,0,0,169,33,0,0,0,169,17,0,0;            57P     36
508,4,0,169,18,1,0,0,169,33,1,0,0,169,29,1,0,0,169,34,1,0;            59P     37
508,4,0,169,34,0,0,0,169,28,1,0,0,169,35,0,0,0,169,19,0,0;            61P     38
508,4,0,169,20,1,0,0,169,35,1,0,0,169,27,1,0,0,169,36,1,0;            63P     39
508,4,0,169,22,0,0,0,169,21,0,0,0,169,36,0,0,0,169,26,1,0;            65P     40
126,2,2,0,0,0,0,-0.785398163397448,-0.785398163397448,                67P     41
-0.785398163397448,0.785398163397448,0.785398163397448,               67P     42
0.785398163397448,1.,0.707106781186544,1.,13.,50.9430550127119,       67P     43
-2.5,13.,50.9430550127119,-5.55111512312578D-16,13.,                  67P     44
48.4430550127119,-2.77555756156289D-16,-0.785398163397448,            67P     45
0.785398163397448,0.,0.,0.;                                           67P     46
126,1,1,0,0,1,0,0.,0.,0.3,0.3,1.,1.,13.,48.4430550127119,0.,10.,      69P     47
48.4430550127119,0.,0.,0.3,0.,0.,0.;                                  69P     48
126,2,2,0,0,0,0,-0.785398163397448,-0.785398163397448,                71P     49
-0.785398163397448,0.785398163397448,0.785398163397448,               71P     50
0.785398163397448,1.,0.707106781186544,1.,10.,48.4430550127119,       71P     51
-2.77555756156289D-16,10.,50.9430550127119,                           71P     52
-5.55111512312578D-16,10.,50.9430550127119,-2.5,                      71P     53
-0.785398163397448,0.785398163397448,0.,0.,0.;                        71P     54
126,1,1,0,0,1,0,-0.3,-0.3,0.,0.,1.,1.,10.,50.9430550127119,-2.5,      73P     55
13.,50.9430550127119,-2.5,-0.3,0.,0.,0.,0.;                           73P     56
126,1,1,0,0,1,0,0.75,0.75,1.98989848130704,1.98989848130704,1.,       75P     57
1.,13.,48.4430550127119,-8.65225470236366D-17,13.,                    75P     58
36.0440701996415,-3.26106637485868D-17,0.75,1.98989848130704,0.,      75P     59
0.,0.;                                                                75P     60
126,1,1,0,0,1,0,-0.3,-0.3,0.,0.,1.,1.,10.,36.0440701996415,0.,        77P     61
13.,36.0440701996415,0.,-0.3,0.,0.,0.,0.;                             77P     62
126,1,1,0,0,1,0,0.75,0.75,1.98989848130704,1.98989848130704,1.,       79P     63
1.,10.,48.4430550127119,-8.65225470236366D-17,10.,                    79P     64
36.0440701996415,-3.26106637485868D-17,0.75,1.98989848130704,0.,      79P     65
0.,0.;                                                                79P     66
126,2,2,0,0,0,0,-0.785398163397448,-0.785398163397448,                81P     67
-0.785398163397448,0.785398163397448,0.785398163397448,               81P     68
0.785398163397448,1.,0.707106781186549,1.,13.,36.0440701996415,       81P     69
-2.77555756156289D-16,13.,33.5440701996415,                           81P     70
-5.55111512312578D-16,13.,33.5440701996415,-2.5,                      81P     71
-0.785398163397448,0.785398163397448,0.,0.,0.;                        81P     72
126,1,1,0,0,1,0,0.,0.,0.3,0.3,1.,1.,13.,33.5440701996415,-2.5,        83P     73
10.,33.5440701996415,-2.5,0.,0.3,0.,0.,0.;                            83P     74
126,2,2,0,0,0,0,-0.785398163397448,-0.785398163397448,                85P     75
-0.785398163397448,0.785398163397448,0.785398163397448,               85P     76
0.785398163397448,1.,0.707106781186549,1.,10.,33.5440701996415,       85P     77
-2.5,10.,33.5440701996415,-5.55111512312578D-16,10.,                  85P     78
36.0440701996415,-2.77555756156289D-16,-0.785398163397448,            85P     79
0.785398163397448,0.,0.,0.;                                           85P     80
126,1,1,0,0,1,0,0.25,0.25,1.27720350998207,1.27720350998207,1.,       87P     81
1.,13.,33.5440701996415,-12.7720350998207,13.,33.5440701996415,       87P     82
-2.5,0.25,1.27720350998207,0.,0.,0.;                                  87P     83
126,1,1,0,0,1,0,-0.3,-0.3,0.,0.,1.,1.,10.,33.5440701996415,           89P     84
-12.7720350998207,13.,33.5440701996415,-12.7720350998207,-0.3,        89P     85
0.,0.,0.,0.;                                                          89P     86
126,1,1,0,0,1,0,-1.27720350998207,-1.27720350998207,-0.25,-0.25,      91P     87
1.,1.,10.,33.5440701996415,-2.5,10.,33.5440701996415,                 91P     88
-12.7720350998207,-1.27720350998207,-0.25,0.,0.,0.;                   91P     89
126,4,2,0,0,0,0,-2.35619449019234,-2.35619449019234,                  93P     90
-2.35619449019234,-0.785398163397448,-0.785398163397448,              93P     91
0.785398163397448,0.785398163397448,0.785398163397448,1.,             93P     92
0.707106781186542,1.,0.707106781186542,1.,10.,50.9430550127119,       93P     93
-12.7720350998207,10.,50.9430550127119,-15.2720350998207,10.,         93P     94
53.4430550127119,-15.2720350998207,10.,55.9430550127119,              93P     95
-15.2720350998207,10.,55.9430550127119,-12.7720350998207,             93P     96
-2.35619449019234,0.785398163397448,0.,0.,0.;                         93P     97
126,1,1,0,0,1,0,-1.27720350998207,-1.27720350998207,-0.25,-0.25,      95P     98
1.,1.,10.,50.9430550127119,-12.7720350998207,10.,                     95P     99
50.9430550127119,-2.5,-1.27720350998207,-0.25,0.,0.,0.;               95P    100
126,4,2,0,0,0,0,-2.35619449019234,-2.35619449019234,                  97P    101
-2.35619449019234,-0.785398163397448,-0.785398163397448,              97P    102
0.785398163397448,0.785398163397448,0.785398163397448,1.,             97P    103
0.707106781186547,1.,0.707106781186547,1.,10.,28.5440701996415,       97P    104
-12.7720350998207,10.,28.5440701996415,-15.2720350998207,10.,         97P    105
31.0440701996415,-15.2720350998207,10.,33.5440701996415,              97P    106
-15.2720350998207,10.,33.5440701996415,-12.7720350998207,             97P    107
-2.35619449019234,0.785398163397448,0.,0.,0.;                         97P    108
126,1,1,0,0,1,0,-1.27720350998207,-1.27720350998207,0.25,0.25,        99P    109
1.,1.,10.,28.5440701996415,-12.7720350998207,10.,                     99P    110
28.5440701996415,2.5,-1.27720350998207,0.25,0.,0.,0.;                 99P    111
126,2,2,0,0,0,0,-0.785398163397448,-0.785398163397448,               101P    112
-0.785398163397448,0.785398163397448,0.785398163397448,              101P    113
0.785398163397448,1.,0.707106781186548,1.,10.,31.0440701996415,      101P    114
5.,10.,28.5440701996415,5.,10.,28.5440701996415,2.5,                 101P    115
-0.785398163397448,0.785398163397448,0.,0.,0.;                       101P    116
126,1,1,0,0,1,0,0.25,0.25,2.48989848130704,2.48989848130704,1.,      103P    117
1.,10.,31.0440701996415,5.,10.,53.4430550127119,5.,0.25,             103P    118
2.48989848130704,0.,0.,0.;                                           103P    119
126,2,2,0,0,0,0,-0.785398163397448,-0.785398163397448,               105P    120
-0.785398163397448,0.785398163397448,0.785398163397448,              105P    121
0.785398163397448,1.,0.707106781186543,1.,10.,55.9430550127119,      105P    122
2.5,10.,55.9430550127119,5.,10.,53.4430550127119,5.,                 105P    123
-0.785398163397448,0.785398163397448,0.,0.,0.;                       105P    124
126,1,1,0,0,1,0,0.25,0.25,1.77720350998207,1.77720350998207,1.,      107P    125
1.,10.,55.9430550127119,2.5,10.,55.9430550127119,                    107P    126
-12.7720350998207,0.25,1.77720350998207,0.,0.,0.;                    107P    127
126,1,1,0,0,1,0,-0.3,-0.3,0.,0.,1.,1.,10.,55.9430550127119,          109P    128
-12.7720350998207,13.,55.9430550127119,-12.7720350998207,-0.3,       109P    129
0.,0.,0.,0.;                                                         109P    130
126,4,2,0,0,0,0,-0.785398163397448,-0.785398163397448,               111P    131
-0.785398163397448,0.785398163397448,0.785398163397448,              111P    132
2.35619449019234,2.35619449019234,2.35619449019234,1.,               111P    133
0.707106781186542,1.,0.707106781186542,1.,13.,55.9430550127119,      111P    134
-12.7720350998207,13.,55.9430550127119,-15.2720350998207,13.,        111P    135
53.4430550127119,-15.2720350998207,13.,50.9430550127119,             111P    136
-15.2720350998207,13.,50.9430550127119,-12.7720350998207,            111P    137
-0.785398163397448,2.35619449019234,0.,0.,0.;                        111P    138
126,1,1,0,0,1,0,0.,0.,0.3,0.3,1.,1.,13.,50.9430550127119,            113P    139
-12.7720350998207,10.,50.9430550127119,-12.7720350998207,0.,0.3,     113P    140
0.,0.,0.;                                                            113P    141
126,1,1,0,0,1,0,0.25,0.25,1.27720350998207,1.27720350998207,1.,      115P    142
1.,13.,50.9430550127119,-2.5,13.,50.9430550127119,                   115P    143
-12.7720350998207,0.25,1.27720350998207,0.,0.,0.;                    115P    144
126,1,1,0,0,1,0,0.25,0.25,1.77720350998207,1.77720350998207,1.,      117P    145
1.,13.,55.9430550127119,2.5,13.,55.9430550127119,                    117P    146
-12.7720350998207,0.25,1.77720350998207,0.,0.,0.;                    117P    147
126,2,2,0,0,0,0,-0.785398163397448,-0.785398163397448,               119P    148
-0.785398163397448,0.785398163397448,0.785398163397448,              119P    149
0.785398163397448,1.,0.707106781186543,1.,13.,53.4430550127119,      119P    150
5.,13.,55.9430550127119,5.,13.,55.9430550127119,2.5,                 119P    151
-0.785398163397448,0.785398163397448,0.,0.,0.;                       119P    152
126,1,1,0,0,1,0,0.25,0.25,2.48989848130704,2.48989848130704,1.,      121P    153
1.,13.,31.0440701996415,5.,13.,53.4430550127119,5.,0.25,             121P    154
2.48989848130704,0.,0.,0.;                                           121P    155
126,2,2,0,0,0,0,-0.785398163397448,-0.785398163397448,               123P    156
-0.785398163397448,0.785398163397448,0.785398163397448,              123P    157
0.785398163397448,1.,0.707106781186548,1.,13.,28.5440701996415,      123P    158
2.5,13.,28.5440701996415,5.,13.,31.0440701996415,5.,                 123P    159
-0.785398163397448,0.785398163397448,0.,0.,0.;                       123P    160
126,1,1,0,0,1,0,-0.25,-0.25,1.27720350998207,1.27720350998207,       125P    161
1.,1.,13.,28.5440701996415,2.5,13.,28.5440701996415,                 125P    162
-12.7720350998207,-0.25,1.27720350998207,0.,0.,0.;                   125P    163
126,4,2,0,0,0,0,-0.785398163397448,-0.785398163397448,               127P    164
-0.785398163397448,0.785398163397448,0.785398163397448,              127P    165
2.35619449019234,2.35619449019234,2.35619449019234,1.,               127P    166
0.707106781186547,1.,0.707106781186547,1.,13.,33.5440701996415,      127P    167
-12.7720350998207,13.,33.5440701996415,-15.2720350998207,13.,        127P    168
31.0440701996415,-15.2720350998207,13.,28.5440701996415,             127P    169
-15.2720350998207,13.,28.5440701996415,-12.7720350998207,            127P    170
-0.785398163397448,2.35619449019234,0.,0.,0.;                        127P    171
126,1,1,0,0,1,0,0.,0.,0.3,0.3,1.,1.,13.,28.5440701996415,            129P    172
-12.7720350998207,10.,28.5440701996415,-12.7720350998207,0.,0.3,     129P    173
0.,0.,0.;                                                            129P    174
126,1,1,0,0,1,0,-0.3,-0.3,0.,0.,1.,1.,10.,28.5440701996415,2.5,      131P    175
13.,28.5440701996415,2.5,-0.3,0.,0.,0.,0.;                           131P    176
126,1,1,0,0,1,0,0.,0.,0.3,0.3,1.,1.,13.,31.0440701996415,5.,10.,     133P    177
31.0440701996415,5.,0.,0.3,0.,0.,0.;                                 133P    178
126,1,1,0,0,1,0,-0.3,-0.3,0.,0.,1.,1.,10.,53.4430550127119,5.,       135P    179
13.,53.4430550127119,5.,-0.3,0.,0.,0.,0.;                            135P    180
126,1,1,0,0,1,0,0.,0.,0.3,0.3,1.,1.,13.,55.9430550127119,2.5,        137P    181
10.,55.9430550127119,2.5,0.,0.3,0.,0.,0.;                            137P    182
128,1,2,1,2,0,0,0,0,0,0.,0.,1.2,1.2,-0.785398163397448,              139P    183
-0.785398163397448,-0.785398163397448,0.785398163397448,             139P    184
0.785398163397448,0.785398163397448,1.,1.,0.707106781186548,         139P    185
0.707106781186548,1.,1.,13.,48.4430550127119,                        139P    186
-2.77555756156289D-15,10.,48.4430550127119,                          139P    187
-2.77555756156289D-15,13.,50.9430550127119,                          139P    188
-5.55111512312578D-16,10.,50.9430550127119,                          139P    189
-5.55111512312578D-16,13.,50.9430550127119,-2.5,10.,                 139P    190
50.9430550127119,-2.5,0.,1.2,-0.785398163397448,                     139P    191
0.785398163397448;                                                   139P    192
128,1,1,1,1,0,0,1,0,0,0.249,0.249,1.49089848130704,                  141P    193
1.49089848130704,-0.001,-0.001,0.301,0.301,1.,1.,1.,1.,13.01,        141P    194
48.4530550127119,-8.65660279086347D-17,13.01,36.0340701996415,       141P    195
-3.25671828635887D-17,9.99,48.4530550127119,                         141P    196
-8.65660279086347D-17,9.99,36.0340701996415,                         141P    197
-3.25671828635887D-17,0.249,1.49089848130704,-0.001,0.301;           141P    198
128,1,2,1,2,0,0,0,0,0,0.,0.,1.2,1.2,-0.785398163397448,              143P    199
-0.785398163397448,-0.785398163397448,0.785398163397448,             143P    200
0.785398163397448,0.785398163397448,1.,1.,0.707106781186548,         143P    201
0.707106781186548,1.,1.,13.,33.5440701996415,-2.5,10.,               143P    202
33.5440701996415,-2.5,13.,33.5440701996415,                          143P    203
-5.55111512312578D-16,10.,33.5440701996415,                          143P    204
-5.55111512312578D-16,13.,36.0440701996415,5.55111512312578D-16,     143P    205
10.,36.0440701996415,5.55111512312578D-16,0.,1.2,                    143P    206
-0.785398163397448,0.785398163397448;                                143P    207
128,1,1,1,1,0,0,1,0,0,0.249,0.249,1.27820350998207,                  145P    208
1.27820350998207,-0.001,-0.001,0.301,0.301,1.,1.,1.,1.,13.01,        145P    209
33.5440701996415,-2.49,13.01,33.5440701996415,-12.7820350998207,     145P    210
9.99,33.5440701996415,-2.49,9.99,33.5440701996415,                   145P    211
-12.7820350998207,0.249,1.27820350998207,-0.001,0.301;               145P    212
128,1,1,1,1,0,0,1,0,0,-1.01460175499104,-1.01460175499104,           147P    213
1.01460175499104,1.01460175499104,-1.37094924065352,                 147P    214
-1.37094924065352,1.37094924065352,1.37094924065352,1.,1.,1.,1.,     147P    215
10.,28.5340701996415,-15.2820350998207,10.,28.5340701996415,         147P    216
5.01,10.,55.9530550127119,-15.2820350998207,10.,                     147P    217
55.9530550127119,5.01,-1.01460175499104,1.01460175499104,            147P    218
-1.37094924065352,1.37094924065352;                                  147P    219
128,1,4,1,2,0,0,0,0,0,0.,0.,1.2,1.2,-2.35619449019234,               149P    220
-2.35619449019234,-2.35619449019234,-0.785398163397448,              149P    221
-0.785398163397448,0.785398163397448,0.785398163397448,              149P    222
0.785398163397448,1.,1.,0.707106781186548,0.707106781186548,1.,      149P    223
1.,0.707106781186548,0.707106781186548,1.,1.,10.,                    149P    224
55.9430550127119,-12.7720350998207,13.,55.9430550127119,             149P    225
-12.7720350998207,10.,55.9430550127119,-15.2720350998207,13.,        149P    226
55.9430550127119,-15.2720350998207,10.,53.4430550127119,             149P    227
-15.2720350998207,13.,53.4430550127119,-15.2720350998207,10.,        149P    228
50.9430550127119,-15.2720350998207,13.,50.9430550127119,             149P    229
-15.2720350998207,10.,50.9430550127119,-12.7720350998207,13.,        149P    230
50.9430550127119,-12.7720350998207,0.,1.2,-2.35619449019234,         149P    231
0.785398163397448;                                                   149P    232
128,1,1,1,1,0,0,1,0,0,0.249,0.249,1.27820350998207,                  151P    233
1.27820350998207,-0.001,-0.001,0.301,0.301,1.,1.,1.,1.,13.01,        151P    234
50.9430550127119,-12.7820350998207,13.01,50.9430550127119,-2.49,     151P    235
9.99,50.9430550127119,-12.7820350998207,9.99,50.9430550127119,       151P    236
-2.49,0.249,1.27820350998207,-0.001,0.301;                           151P    237
128,1,1,1,1,0,0,1,0,0,-1.37094924065352,-1.37094924065352,           153P    238
1.37094924065352,1.37094924065352,-1.01460175499104,                 153P    239
-1.01460175499104,1.01460175499104,1.01460175499104,1.,1.,1.,1.,     153P    240
13.,28.5340701996415,-15.2820350998207,13.,55.9530550127119,         153P    241
-15.2820350998207,13.,28.5340701996415,5.01,13.,                     153P    242
55.9530550127119,5.01,-1.37094924065352,1.37094924065352,            153P    243
-1.01460175499104,1.01460175499104;                                  153P    244
128,1,4,1,2,0,0,0,0,0,0.,0.,1.2,1.2,-2.35619449019234,               155P    245
-2.35619449019234,-2.35619449019234,-0.785398163397448,              155P    246
-0.785398163397448,0.785398163397448,0.785398163397448,              155P    247
0.785398163397448,1.,1.,0.707106781186548,0.707106781186548,1.,      155P    248
1.,0.707106781186548,0.707106781186548,1.,1.,10.,                    155P    249
33.5440701996415,-12.7720350998207,13.,33.5440701996415,             155P    250
-12.7720350998207,10.,33.5440701996415,-15.2720350998207,13.,        155P    251
33.5440701996415,-15.2720350998207,10.,31.0440701996415,             155P    252
-15.2720350998207,13.,31.0440701996415,-15.2720350998207,10.,        155P    253
28.5440701996415,-15.2720350998207,13.,28.5440701996415,             155P    254
-15.2720350998207,10.,28.5440701996415,-12.7720350998207,13.,        155P    255
28.5440701996415,-12.7720350998207,0.,1.2,-2.35619449019234,         155P    256
0.785398163397448;                                                   155P    257
128,1,1,1,1,0,0,1,0,0,0.249,0.249,1.77820350998207,                  157P    258
1.77820350998207,-0.001,-0.001,0.301,0.301,1.,1.,1.,1.,13.01,        157P    259
28.5440701996415,-12.7820350998207,13.01,28.5440701996415,2.51,      157P    260
9.99,28.5440701996415,-12.7820350998207,9.99,28.5440701996415,       157P    261
2.51,0.249,1.77820350998207,-0.001,0.301;                            157P    262
128,1,2,1,2,0,0,0,0,0,0.,0.,1.2,1.2,-0.785398163397448,              159P    263
-0.785398163397448,-0.785398163397448,0.785398163397448,             159P    264
0.785398163397448,0.785398163397448,1.,1.,0.707106781186548,         159P    265
0.707106781186548,1.,1.,10.,28.5440701996415,2.5,13.,                159P    266
28.5440701996415,2.5,10.,28.5440701996415,5.,13.,                    159P    267
28.5440701996415,5.,10.,31.0440701996415,5.,13.,                     159P    268
31.0440701996415,5.,0.,1.2,-0.785398163397448,0.785398163397448;     159P    269
128,1,1,1,1,0,0,1,0,0,0.249,0.249,2.49089848130704,                  161P    270
2.49089848130704,-0.001,-0.001,0.301,0.301,1.,1.,1.,1.,13.01,        161P    271
31.0340701996415,5.,13.01,53.4530550127119,5.,9.99,                  161P    272
31.0340701996415,5.,9.99,53.4530550127119,5.,0.249,                  161P    273
2.49089848130704,-0.001,0.301;                                       161P    274
128,1,2,1,2,0,0,0,0,0,0.,0.,1.2,1.2,-0.785398163397448,              163P    275
-0.785398163397448,-0.785398163397448,0.785398163397448,             163P    276
0.785398163397448,0.785398163397448,1.,1.,0.707106781186548,         163P    277
0.707106781186548,1.,1.,10.,53.4430550127119,5.,13.,                 163P    278
53.4430550127119,5.,10.,55.9430550127119,5.,13.,                     163P    279
55.9430550127119,5.,10.,55.9430550127119,2.5,13.,                    163P    280
55.9430550127119,2.5,0.,1.2,-0.785398163397448,                      163P    281
0.785398163397448;                                                   163P    282
128,1,1,1,1,0,0,1,0,0,0.249,0.249,1.77820350998207,                  165P    283
1.77820350998207,-0.001,-0.001,0.301,0.301,1.,1.,1.,1.,13.01,        165P    284
55.9430550127119,2.51,13.01,55.9430550127119,-12.7820350998207,      165P    285
9.99,55.9430550127119,2.51,9.99,55.9430550127119,                    165P    286
-12.7820350998207,0.249,1.77820350998207,-0.001,0.301;               165P    287
502,24,13.,50.9430550127119,-2.5,13.,48.4430550127119,               167P    288
-8.65225470236366D-17,10.,48.4430550127119,                          167P    289
-8.65225470236366D-17,10.,50.9430550127119,-2.5,13.,                 167P    290
36.0440701996415,-3.26106637485868D-17,10.,36.0440701996415,         167P    291
-3.26106637485868D-17,13.,33.5440701996415,-2.5,10.,                 167P    292
33.5440701996415,-2.5,13.,33.5440701996415,-12.7720350998207,        167P    293
10.,33.5440701996415,-12.7720350998207,10.,50.9430550127119,         167P    294
-12.7720350998207,10.,55.9430550127119,-12.7720350998207,10.,        167P    295
28.5440701996415,-12.7720350998207,10.,28.5440701996415,2.5,10.,     167P    296
31.0440701996415,5.,10.,53.4430550127119,5.,10.,                     167P    297
55.9430550127119,2.5,13.,55.9430550127119,-12.7720350998207,13.,     167P    298
50.9430550127119,-12.7720350998207,13.,55.9430550127119,2.5,13.,     167P    299
53.4430550127119,5.,13.,31.0440701996415,5.,13.,                     167P    300
28.5440701996415,2.5,13.,28.5440701996415,-12.7720350998207;         167P    301
504,36,67,167,1,167,2,69,167,2,167,3,71,167,3,167,4,73,167,4,        169P    302
167,1,75,167,2,167,5,77,167,6,167,5,79,167,3,167,6,81,167,5,167,     169P    303
7,83,167,7,167,8,85,167,8,167,6,87,167,9,167,7,89,167,10,167,9,      169P    304
91,167,8,167,10,93,167,11,167,12,95,167,11,167,4,97,167,13,167,      169P    305
10,99,167,13,167,14,101,167,15,167,14,103,167,15,167,16,105,167,     169P    306
17,167,16,107,167,17,167,12,109,167,12,167,18,111,167,18,167,19,     169P    307
113,167,19,167,11,115,167,1,167,19,117,167,20,167,18,119,167,21,     169P    308
167,20,121,167,22,167,21,123,167,23,167,22,125,167,23,167,24,        169P    309
127,167,9,167,24,129,167,24,167,13,131,167,14,167,23,133,167,22,     169P    310
167,15,135,167,16,167,21,137,167,20,167,17;                          169P    311
406,1,7H본체1;                                                     171P    312
406,1,15H구성요소1:1;                                            173P    313
314,62.7450980392157,62.7450980392157,62.7450980392157,15H강철     175P    314
 - 새틴;                                                           175P    315
S      1G      3D    176P    315                                        T      1
